<svg version="1.1" viewBox="0 0 48 48" xmlns="http://www.w3.org/2000/svg">
  <path d="m10.152344 13c-.892028.006-1.7371355.227184-2.3359378.828125-.5988021.600941-.8162252 1.447209-.8164062 2.339844v2.832031h-3c-.5522619 5.5e-5-.9999448.447738-1 1v8c5.52e-5.552262.4477381.999945 1 1h3v2.841797c-2.32e-5.892627.2159592 1.739256.8164062 2.339844.6004472.600586 1.4487475.818359 2.3417968.818359h31.681641c.889125 0 1.734555-.217828 2.335937-.816406.601384-.598579.824219-1.446445.824219-2.341797v-15.671875c0-.891185-.222442-1.74016-.822266-2.341797-.599823-.601637-1.450084-.828095-2.347656-.828125h-31.669922c-.0026-1e-5-.0052-1e-5-.0078 0zm2.01367 2h25.390627v18h-25.398438c-.586747 0-.81667-.123285-.925781-.232422-.109111-.109136-.232437-.339311-.232422-.925781v-15.671875c0-.586463.121485-.818355.232422-.929688.110936-.111332 1.521378-.240234.933594-.240234z" color="#000000" fill="#ff009e" stroke-linejoin="round" style="-inkscape-stroke:none"/>
  <path d="m39.556 14.871375-27.453095-.000913c-1.406297.0091-2.5351923 1.094266-2.5354774 2.444615v3.033105h-3.8013148v7.303628h3.8013148v3.04196c0 1.350349 1.1291804 2.43576 2.5354774 2.43576h27.453095z" fill="#20201f" stroke-width=".931454"/>
</svg>
