<svg width="20" height="16" version="1.1" xmlns="http://www.w3.org/2000/svg"><path d="m4.4375 14.562c.4548.2773.9887.43749 1.5625.4375l10 .00025c1.662 4.2e-5 3-1.338 3-3v-7c0-.5738-.1602-1.1077-.4375-1.5625.8626.5258 1.4375 1.4743 1.4375 2.5625v7c0 1.662-1.338 3-3 3l-10-.00025c-1.0882-2.7e-5-2.0367-.5749-2.5625-1.4375z" color="#000000" opacity=".4"/><path d="m3 5v7c0 1.662 1.338 3 3 3l10 .00025c1.662 4.2e-5 3-1.338 3-3v-7c0-1.662-1.338-3-3-3l-10-.00025c-1.662-4.15e-5-3 1.338-3 3z" color="#000000" opacity=".8"/><path d="m2 4c0-1.662 1.338-3 3-3l10 .00025c.831 2.08e-5 1.5828.3328 2.125.875l-1.125 1.125-12 8.9998-1.125 1.125c-.5422-.5422-.875-1.294-.875-2.125z" color="#000000" fill="#787878"/><path d="m2.875 13.125 1.125-1.125 12-8.9998 1.125-1.125c.5423.5423.875 1.294.875 2.125v7c0 1.662-1.338 3-3 3l-10-.00025c-.831-2.1e-5-1.5827-.3327-2.125-.875z" color="#000000" fill="#4d4d4d"/><path d="m3 4v7c0 1.108.892 2 2 2l10 .00025c1.108 2.8e-5 2-.892 2-2v-7c0-1.108-.892-2-2-2l-10-.00025c-1.108-2.77e-5-2 .892-2 2z" color="#000000" fill="#232323"/><path d="m3 6v1l14 .00025v-1z" color="#000000" fill="#080808"/><path d="m3 7v1l14 .00025v-1z" color="#000000" fill="#e80"/><path d="m3 8v1l14 .00025v-1z" color="#000000" fill="#515151"/></svg>
