<svg width="36" height="105" version="1.1" xmlns="http://www.w3.org/2000/svg" xmlns:xlink="http://www.w3.org/1999/xlink"><defs><linearGradient id="a"><stop stop-color="#444" offset="0"/><stop stop-color="#848484" offset=".5"/><stop stop-color="#444" offset="1"/></linearGradient><linearGradient id="b" x1="8" x2="8" y1="1051.4" y2="948.36" gradientTransform="translate(-1,-947.36)" gradientUnits="userSpaceOnUse" xlink:href="#a"/><linearGradient id="d" x1="8" x2="8" y1="1051.4" y2="948.36" gradientTransform="translate(-1 -947.36)" gradientUnits="userSpaceOnUse" xlink:href="#a"/><linearGradient id="e" x1="8" x2="8" y1="1051.4" y2="948.36" gradientTransform="translate(-1 -947.4)" gradientUnits="userSpaceOnUse" xlink:href="#a"/><linearGradient id="c" x1="8" x2="8" y1="1051.4" y2="948.36" gradientTransform="translate(-1 -947.4)" gradientUnits="userSpaceOnUse" xlink:href="#a"/></defs><rect x="13" y="5" width="10" height="1" color="#000000" fill="url(#b)"/><rect x="13" y="7" width="10" height="1" color="#000000" fill="url(#b)"/><g fill="url(#d)"><rect x="13" y="9" width="10" height="1" color="#000000"/><rect x="13" y="11" width="10" height="1" color="#000000"/><rect x="13" y="13" width="10" height="1" color="#000000"/><rect x="13" y="15" width="10" height="1" color="#000000"/><rect x="13" y="17" width="10" height="1" color="#000000"/><rect x="13" y="19" width="10" height="1" color="#000000"/><rect x="13" y="21" width="10" height="1" color="#000000"/><rect x="13" y="23" width="10" height="1" color="#000000"/><rect x="13" y="25" width="10" height="1" color="#000000"/><rect x="13" y="29" width="10" height="1" color="#000000"/><rect x="13" y="31" width="10" height="1" color="#000000"/><rect x="13" y="33" width="10" height="1" color="#000000"/><rect x="13" y="35" width="10" height="1" color="#000000"/><rect x="13" y="37" width="10" height="1" color="#000000"/><rect x="13" y="39" width="10" height="1" color="#000000"/><rect x="13" y="41" width="10" height="1" color="#000000"/><rect x="13" y="43" width="10" height="1" color="#000000"/><rect x="13" y="45" width="10" height="1" color="#000000"/><rect x="13" y="47" width="10" height="1" color="#000000"/><rect x="13" y="49" width="10" height="1" color="#000000"/></g><g fill="url(#e)"><rect x="12" y="53" width="12" height="1" color="#000000"/><rect x="13" y="55" width="10" height="1" color="#000000"/><rect x="13" y="57" width="10" height="1" color="#000000"/><rect x="13" y="59" width="10" height="1" color="#000000"/><rect x="13" y="61" width="10" height="1" color="#000000"/><rect x="13" y="63" width="10" height="1" color="#000000"/><rect x="13" y="65" width="10" height="1" color="#000000"/><rect x="13" y="67" width="10" height="1" color="#000000"/><rect x="13" y="69" width="10" height="1" color="#000000"/><rect x="13" y="71" width="10" height="1" color="#000000"/><rect x="13" y="73" width="10" height="1" color="#000000"/><rect x="13" y="75" width="10" height="1" color="#000000"/><rect x="9" y="79" width="18" height="1" color="#000000"/><rect x="13" y="81" width="10" height="1" color="#000000"/><rect x="13" y="83" width="10" height="1" color="#000000"/><rect x="13" y="85" width="10" height="1" color="#000000"/><rect x="13" y="87" width="10" height="1" color="#000000"/><rect x="13" y="89" width="10" height="1" color="#000000"/><rect x="13" y="91" width="10" height="1" color="#000000"/></g><g fill="url(#c)"><rect x="13" y="93" width="10" height="1" color="#000000"/><rect x="13" y="95" width="10" height="1" color="#000000"/><rect x="13" y="97" width="10" height="1" color="#000000"/><rect x="13" y="99" width="10" height="1" color="#000000"/></g><rect x="13" y="3" width="10" height="1" color="#000000" fill="url(#b)"/><rect x="9" y="27" width="18" height="1" color="#000000" fill="url(#d)"/><rect x="13" y="51" width="10" height="1" color="#000000" fill="url(#d)"/><rect x="13" y="77" width="10" height="1" color="#000000" fill="url(#e)"/><rect x="13" y="101" width="10" height="1" color="#000000" fill="url(#c)"/><rect x="7" y="103" width="22" height="1" color="#000000" fill="url(#c)"/><rect x="7" y=".99999" width="22" height="1" color="#000000" fill="url(#b)"/><rect x="16" y="3" width="4" height="99" color="#000000"/></svg>
