<svg width="20" height="105" version="1.1" xmlns="http://www.w3.org/2000/svg" xmlns:xlink="http://www.w3.org/1999/xlink"><defs><linearGradient id="a"><stop stop-color="#444" offset="0"/><stop stop-color="#848484" offset=".5"/><stop stop-color="#444" offset="1"/></linearGradient><linearGradient id="c" x1="8" x2="8" y1="1051.4" y2="948.36" gradientTransform="matrix(.8 0 0 1 -5.2 -947.36)" gradientUnits="userSpaceOnUse" xlink:href="#a"/><linearGradient id="e" x1="8" x2="8" y1="1051.4" y2="948.36" gradientTransform="matrix(.8 0 0 1 -5.2 -947.36)" gradientUnits="userSpaceOnUse" xlink:href="#a"/><linearGradient id="j" x1="8" x2="8" y1="1051.4" y2="948.36" gradientTransform="translate(-9 -947.4)" gradientUnits="userSpaceOnUse" xlink:href="#a"/><linearGradient id="b" x1="8" x2="8" y1="1051.4" y2="948.36" gradientTransform="matrix(.8 0 0 1 -5.2 -947.4)" gradientUnits="userSpaceOnUse" xlink:href="#a"/><linearGradient id="i" x1="8" x2="8" y1="1051.4" y2="948.36" gradientTransform="matrix(.77778 0 0 1 -4.7778 -947.4)" gradientUnits="userSpaceOnUse" xlink:href="#a"/><linearGradient id="d" x1="8" x2="8" y1="1051.4" y2="948.36" gradientTransform="matrix(.8 0 0 1 -5.2 -947.4)" gradientUnits="userSpaceOnUse" xlink:href="#a"/><linearGradient id="h" x1="8" x2="8" y1="1051.4" y2="948.36" gradientTransform="matrix(.77778 0 0 1 -4.7778 -947.36)" gradientUnits="userSpaceOnUse" xlink:href="#a"/><linearGradient id="g" x1="8" x2="8" y1="1051.4" y2="948.36" gradientTransform="matrix(.72727 0 0 1 -3.8182 -947.4)" gradientUnits="userSpaceOnUse" xlink:href="#a"/><linearGradient id="f" x1="8" x2="8" y1="1051.4" y2="948.36" gradientTransform="matrix(.72727 0 0 1 -3.8182 -947.36)" gradientUnits="userSpaceOnUse" xlink:href="#a"/></defs><rect x="6" y="5" width="8" height="1" color="#000000" fill="url(#c)"/><rect x="6" y="7" width="8" height="1" color="#000000" fill="url(#c)"/><g fill="url(#e)"><rect x="6" y="9" width="8" height="1" color="#000000"/><rect x="6" y="11" width="8" height="1" color="#000000"/><rect x="6" y="13" width="8" height="1" color="#000000"/><rect x="6" y="15" width="8" height="1" color="#000000"/><rect x="6" y="17" width="8" height="1" color="#000000"/><rect x="6" y="19" width="8" height="1" color="#000000"/><rect x="6" y="21" width="8" height="1" color="#000000"/><rect x="6" y="23" width="8" height="1" color="#000000"/><rect x="6" y="25" width="8" height="1" color="#000000"/><rect x="6" y="29" width="8" height="1" color="#000000"/><rect x="6" y="31" width="8" height="1" color="#000000"/><rect x="6" y="33" width="8" height="1" color="#000000"/><rect x="6" y="35" width="8" height="1" color="#000000"/><rect x="6" y="37" width="8" height="1" color="#000000"/><rect x="6" y="39" width="8" height="1" color="#000000"/><rect x="6" y="41" width="8" height="1" color="#000000"/><rect x="6" y="43" width="8" height="1" color="#000000"/><rect x="6" y="45" width="8" height="1" color="#000000"/><rect x="6" y="47" width="8" height="1" color="#000000"/><rect x="6" y="49" width="8" height="1" color="#000000"/></g><rect x="4" y="53" width="12" height="1" color="#000000" fill="url(#j)"/><g fill="url(#b)"><rect x="6" y="55" width="8" height="1" color="#000000"/><rect x="6" y="57" width="8" height="1" color="#000000"/><rect x="6" y="59" width="8" height="1" color="#000000"/><rect x="6" y="61" width="8" height="1" color="#000000"/><rect x="6" y="63" width="8" height="1" color="#000000"/><rect x="6" y="65" width="8" height="1" color="#000000"/><rect x="6" y="67" width="8" height="1" color="#000000"/><rect x="6" y="69" width="8" height="1" color="#000000"/><rect x="6" y="71" width="8" height="1" color="#000000"/><rect x="6" y="73" width="8" height="1" color="#000000"/><rect x="6" y="75" width="8" height="1" color="#000000"/></g><rect x="3" y="79" width="14" height="1" color="#000000" fill="url(#i)"/><g fill="url(#b)"><rect x="6" y="81" width="8" height="1" color="#000000"/><rect x="6" y="83" width="8" height="1" color="#000000"/><rect x="6" y="85" width="8" height="1" color="#000000"/><rect x="6" y="87" width="8" height="1" color="#000000"/><rect x="6" y="89" width="8" height="1" color="#000000"/><rect x="6" y="91" width="8" height="1" color="#000000"/></g><g fill="url(#d)"><rect x="6" y="93" width="8" height="1" color="#000000"/><rect x="6" y="95" width="8" height="1" color="#000000"/><rect x="6" y="97" width="8" height="1" color="#000000"/><rect x="6" y="99" width="8" height="1" color="#000000"/></g><rect x="6" y="3" width="8" height="1" color="#000000" fill="url(#c)"/><rect x="3" y="27" width="14" height="1" color="#000000" fill="url(#h)"/><g><rect x="6" y="51" width="8" height="1" color="#000000" fill="url(#e)"/><rect x="6" y="77" width="8" height="1" color="#000000" fill="url(#b)"/><rect x="6" y="101" width="8" height="1" color="#000000" fill="url(#d)"/></g><rect x="2" y="103" width="16" height="1" color="#000000" fill="url(#g)"/><rect x="2" y=".99999" width="16" height="1" color="#000000" fill="url(#f)"/><rect x="8" y="3" width="4" height="99" color="#000000"/></svg>
