<svg width="16" height="13" version="1.1" xmlns="http://www.w3.org/2000/svg">
  <path d="m2.2936215 11.183513c0.50429 0.41324 1.07523 0.816575 2.20536 0.816565l7.3988955-8.8e-5c2.101749-2.5e-5 3.101863-1.65253 3.10175-2.9996496l-2.51e-4 -3.00035c-4.7e-5 -0.5738101-0.198495-1.29214-0.580323-1.77769 0.86256 0.52578 1.080729 1.68914 1.08082 2.77734l2.5e-4 3.00035c1.38e-4 1.6619996-1.338 2.9999896-3 2.9999996l-7.6439945 8.8e-5c-1.0882 9e-6 -2.27159-0.138071-2.5625-1.81656z" color="#000000" opacity=".5"/>
  <path d="m1.3553715 6.0004525 2.5e-4 3.00035c1.385e-4 1.6620005 1.338 3.0000105 3 3.0000005l7.6439955-8.9e-5c1.661999-1.2e-5 3.000139-1.338 3-2.9999996l-2.51e-4 -3.00035c-1.39e-4 -1.662-1.338-3.00001-2.999999-3l-7.6439955 8.76e-5c-1.662 1.9e-5 -3.00014 1.338-3 3.0000005z" color="#000000" opacity=".8"/>
  <path d="m2.9998715 1.9999225 10.0000955 8.74e-5c1.107999 9.7e-6 2 0.892 2 2v2c0 1.108-0.892 2-2 2l-10.0000955-8.74e-5c-1.108-9.7e-6 -2-0.892-2-2v-2c0-1.108 0.892-2 2-2z" fill="#2a2a2a"/>
  <path d="m2.9998715 4.9999225 10.0000955 8.74e-5c1.107999 9.7e-6 2 0.892 2 2v2c0 1.1080001-0.892 1.9999991-2 1.9999991l-10.0000955-8.6e-5c-1.108-5e-6 -2-0.892-2-2v-2c0-1.108 0.892-2 2-2.0000005z" fill="#050505"/>
  <path d="m14.999987 8.0000124c0 1.108-0.446001 1.9999996-1 1.9999996l-12.0000955-8.7e-5c-0.554-4e-6 -1-0.892-1-2z" fill="#1a1a1a"/>
  <path d="m1.9998715 5.0002425 12.0000955 8.74e-5v1l-12.0000955-8.74e-5z" fill="#323232"/>
  <path d="m1.9998715 7.0002425 12.0000955 8.74e-5v1l-12.0000955-8.74e-5z" fill="#5f5f5f"/>
  <path d="m1.9998715 6.0002425 12.0000955 8.74e-5v1l-12.0000955-8.74e-5z" fill="#51504f"/>
  <path d="m14.999987 5.0003324h-1v1h1z" fill="#212121"/>
  <path d="m14.999987 7.0003324h-1v1h1z" fill="#464646"/>
  <path d="m14.999987 6.0003324h-1v1h1z" fill="#323232"/>
  <path d="m1.9998715 6.9999225h-1v1h1z" fill="#706f6e"/>
  <path d="m1.9998715 5.9999225h-1v1h1z" fill="#5e5e5e"/>
  <path d="m1.0002715 5.0002425h0.9996v1h-0.9996z" fill="#3e3e3e"/>
  <path d="m1.9998715 2.9999225 12.0000955 8.74e-5c0.553999 4e-6 1 0.892 1 1.9999999l-14.0000955-8.73e-5c0-1.108 0.446-2 1-2z" fill="#141414"/>
</svg>
