<svg width="35" height="30" version="1.1" xmlns="http://www.w3.org/2000/svg" xmlns:xlink="http://www.w3.org/1999/xlink">
  <defs>
    <linearGradient id="a" x1="9.1772108" x2="30.822329" y1="18.998186" y2="18.998186" gradientTransform="matrix(-.16649667 -1.0580923 1.0580923 -.16649667 3.227828 43.322923)" gradientUnits="userSpaceOnUse">
      <stop stop-color="#0e0e0e" offset="0"/>
      <stop stop-color="#5d5d5d" offset="1"/>
    </linearGradient>
    <filter id="f" x="-.047993741" y="-.048010068" width="1.0959875" height="1.0960201" color-interpolation-filters="sRGB">
      <feGaussianBlur stdDeviation="0.46348536"/>
    </filter>
    <filter id="b" x="-.14121713" y="-.15263783" width="1.282622" height="1.3059368" color-interpolation-filters="sRGB">
      <feGaussianBlur result="blur" stdDeviation="0.61 0.51"/>
    </filter>
  </defs>
  <path d="m7.4568573 26.920396c-5.2708844-5.671867-5.4275679-14.74049 0.1005854-20.1601378 5.5281533-5.4196477 14.3569583-5.4196476 19.8851113 3e-7 5.528153 5.4196475 5.388184 14.5551235 0.117299 20.2269915l-2.372519-2.228132-15.3635296-0.100584z" fill="none" filter="url(#b)" stroke="#1e1e20" stroke-linecap="round" stroke-linejoin="round" stroke-width="5" style="paint-order:fill markers stroke"/>
  <path d="m7.4568573 26.920396c-5.2708844-5.671867-5.4275679-14.74049 0.1005854-20.1601378 5.5281533-5.4196477 14.3569583-5.4196476 19.8851113 3e-7 5.528153 5.4196475 5.388184 14.5551235 0.117299 20.2269915l-2.372519-2.228132-15.3635296-0.100584z" fill="none" stroke="#050505" stroke-linecap="round" stroke-width="1.13749993" style="paint-order:fill markers stroke"/>
  <path d="m7.4568573 26.920396c-5.2708844-5.671867-5.4275679-14.74049 0.1005854-20.1601379 5.5281533-5.4196477 14.3569583-5.4196476 19.8851113 3e-7 5.528153 5.4196476 5.388184 14.5551236 0.117299 20.2269916l-2.372519-2.228132-15.3635296-0.100584z" style="paint-order:fill markers stroke"/>
  <g transform="matrix(.86126008 .24088869 -.24088869 .86126008 5.091785 -4.5900697)">
    <g transform="matrix(.10676 0 0 .10676 -19.071124 -31.786292)" opacity=".49300005">
      <path d="m270.69379 536.40673c20.01433 60.04489 85.31772 92.31846 145.17067 71.75942 60.21816-19.46338 93.09981-84.46428 73.08548-144.50917-78.29686-151.10046-253.52045-44.94758-218.25615 72.74975z" color="#000000" color-rendering="auto" dominant-baseline="auto" image-rendering="auto" opacity="1" shape-rendering="auto" solid-color="#000000" style="font-feature-settings:normal;font-variant-alternates:normal;font-variant-caps:normal;font-variant-ligatures:normal;font-variant-numeric:normal;font-variant-position:normal;isolation:auto;mix-blend-mode:normal;shape-padding:0;text-decoration-color:#000000;text-decoration-line:none;text-decoration-style:solid;text-indent:0;text-orientation:mixed;text-transform:none;white-space:normal"/>
    </g>
    <g transform="matrix(.10746967 0 0 .10746967 -20.137858 -33.659792)" fill="#050505" opacity=".93999999">
      <path d="m270.69379 536.40673c20.01433 60.04489 85.31772 92.31846 145.17067 71.75942 60.21816-19.46338 93.09981-84.46428 73.08548-144.50917-20.01433-60.04488-85.31957-92.31785-145.17252-71.7588-60.21816 19.46339-93.09796 84.46366-73.08363 144.50855z" color="#000000" color-rendering="auto" dominant-baseline="auto" fill="#050505" image-rendering="auto" opacity="1" shape-rendering="auto" solid-color="#000000" style="font-feature-settings:normal;font-variant-alternates:normal;font-variant-caps:normal;font-variant-ligatures:normal;font-variant-numeric:normal;font-variant-position:normal;isolation:auto;mix-blend-mode:normal;shape-padding:0;text-decoration-color:#000000;text-decoration-line:none;text-decoration-style:solid;text-indent:0;text-orientation:mixed;text-transform:none;white-space:normal"/>
    </g>
  </g>
  <g transform="matrix(.93356446 0 0 .93356446 1.162622 1.1215962)">
    <path d="m18.383193 5.7225801c-1.443351-0.101562-2.929556 0.0839381-4.382721 0.5917675-5.8612438 1.8922667-9.0625965 8.2539304-7.1175978 14.1350504 1.9451219 5.881491 8.2992828 9.034179 14.1150208 7.002885 5.861243-1.892266 9.064416-8.252109 7.119418-14.133229-1.459289-4.4124688-5.400535-7.2915394-9.73412-7.5964739z" color="#000000" color-rendering="auto" dominant-baseline="auto" image-rendering="auto" shape-rendering="auto" solid-color="#000000" stroke-width=".922565" style="font-feature-settings:normal;font-variant-alternates:normal;font-variant-caps:normal;font-variant-ligatures:normal;font-variant-numeric:normal;font-variant-position:normal;isolation:auto;mix-blend-mode:normal;shape-padding:0;text-decoration-color:#000000;text-decoration-line:none;text-decoration-style:solid;text-indent:0;text-orientation:mixed;text-transform:none;white-space:normal"/>
    <path d="m7.2012454 18.966814c0.2809698 1.328662 0.8320426 2.62189 1.6654463 3.802088 3.2206833 4.800531 9.7877553 6.047015 14.5926103 2.773617 4.805157-3.273606 6.009664-9.821346 2.675275-14.544921-3.220683-4.8005312-9.786583-6.0491285-14.591437-2.7757307-3.6049713 2.4559557-5.1854946 6.7557047-4.3418946 10.7449467z" color="#000000" color-rendering="auto" dominant-baseline="auto" fill="#474747" image-rendering="auto" opacity=".746" shape-rendering="auto" solid-color="#000000" stroke-width=".937268" style="font-feature-settings:normal;font-variant-alternates:normal;font-variant-caps:normal;font-variant-ligatures:normal;font-variant-numeric:normal;font-variant-position:normal;isolation:auto;mix-blend-mode:normal;shape-padding:0;text-decoration-color:#000000;text-decoration-line:none;text-decoration-style:solid;text-indent:0;text-orientation:mixed;text-transform:none;white-space:normal"/>
    <path d="m15.721532 7.6625733a9.8899288 9.9678322 8.0144789 1 1 3.556554 19.5985267 9.8899288 9.9678322 8.0144789 1 1-3.556554-19.5985267z" fill="#282828" stroke-width="1.00181"/>
  </g>
  <path transform="matrix(.875 0 0 .8781038 .00020071326 -.30072665)" d="m9.1115125 22.795856a11.451207 11.541409 89.071998 1 1 21.7765145-7.595337 11.451207 11.541409 89.071998 1 1-21.7765145 7.595337z" fill="url(#a)" filter="url(#f)" opacity=".1" stroke-width="1.08289"/>
</svg>
