<svg width="44" height="44" version="1.1" viewBox="0 0 22 22" xmlns="http://www.w3.org/2000/svg">
  <path d="m15.964922 4.8299818-1.57153 1.5715299c1.875994 1.1474234 3.132121 3.2082434 3.132121 5.5682523 0 3.605225-2.920076 6.525399-6.5254 6.525399-3.6053376 0-6.5253995-2.920174-6.5253995-6.525399 0-2.3600229 1.25613-4.4208399 3.1321211-5.5682523l-1.5715303-1.5715299c-2.2566787 1.5715298-3.7358039 4.1815603-3.7358039 7.1397822 0 4.806994 3.8935052 8.700387 8.7005006 8.700387 4.806994 0 8.700499-3.893393 8.700499-8.700387 0-2.958222-1.479125-5.5682524-3.735803-7.1397823z" fill="#0e0e0e" stroke-width=".999997"/>
  <path d="m12.242926 1.329849h-2.4858515v7.4575671h2.4858515z" fill="#0e0e0e" stroke-width=".999997"/>
</svg>
