<svg version="1.1" viewBox="0 0 44 22" xmlns="http://www.w3.org/2000/svg">
  <path d="m1.80078 1c-.434551-2e-7-.800781.36623-.800781.800781v18.3984c0 .434551.36623.800781.800781.800781l40.398519 1.9e-5c.434551 0 .800781-.36623.800781-.800781v-18.3984c0-.434551-.36623-.8007808-.800781-.800781zm1.19922 1 38.000119 1.9e-5c.562649 3e-7 1 .437351 1 1v16c0 .562649-.437351 1-1 1l-38.000119-1.9e-5c-.562649 0-1-.437351-1-1v-16c0-.562649.437351-1.0000003 1-1z" color="#000000" color-rendering="auto" dominant-baseline="auto" fill="#000001" image-rendering="auto" shape-rendering="auto" solid-color="#000000" style="font-feature-settings:normal;font-variant-alternates:normal;font-variant-caps:normal;font-variant-ligatures:normal;font-variant-numeric:normal;font-variant-position:normal;isolation:auto;mix-blend-mode:normal;paint-order:fill markers stroke;shape-padding:0;text-decoration-color:#000000;text-decoration-line:none;text-decoration-style:solid;text-indent:0;text-orientation:mixed;text-transform:none;white-space:normal"/>
  <path d="m3 2c-.562649-3e-7-1 1.56265-1 1v.5h1.10742c.150078-.293496.446907-.5000002.800781-.5l36.183719 1.9e-5c.353875 2e-7.650703.206504.800781.5h1.10742v-.5c0-.562648-.437351-.9999997-1-1z" color="#000000" color-rendering="auto" dominant-baseline="auto" fill="#dcdcdc" fill-opacity=".0705882" image-rendering="auto" shape-rendering="auto" solid-color="#000000" style="font-feature-settings:normal;font-variant-alternates:normal;font-variant-caps:normal;font-variant-ligatures:normal;font-variant-numeric:normal;font-variant-position:normal;isolation:auto;mix-blend-mode:normal;paint-order:fill markers stroke;shape-padding:0;text-decoration-color:#000000;text-decoration-line:none;text-decoration-style:solid;text-indent:0;text-orientation:mixed;text-transform:none;white-space:normal"/>
  <path d="m3 20c-.562649 0-1-.437352-1-1v-15.5h1v14.5918c0 .503636.404567.908203.908203.908203l36.183719 1.9e-5c.503636 0 1.39664-.785401.908203-.908203v-14.5918h1v15.5c0 .562648-.437351 1-1 1z" color="#000000" color-rendering="auto" dominant-baseline="auto" fill="#d1d1d1" fill-opacity=".0196078" image-rendering="auto" shape-rendering="auto" solid-color="#000000" style="font-feature-settings:normal;font-variant-alternates:normal;font-variant-caps:normal;font-variant-ligatures:normal;font-variant-numeric:normal;font-variant-position:normal;isolation:auto;mix-blend-mode:normal;paint-order:fill markers stroke;shape-padding:0;text-decoration-color:#000000;text-decoration-line:none;text-decoration-style:solid;text-indent:0;text-orientation:mixed;text-transform:none;white-space:normal"/>
</svg>
