<svg width="44" height="44" version="1.1" viewBox="0 0 22 22" xmlns="http://www.w3.org/2000/svg">
  <g transform="matrix(1.2429357,0,0,1.2404909,-2.6723424,-2.3726656)" fill="none" stroke="#000001" stroke-linejoin="round" stroke-width="1.28855">
    <path d="m13.7302 7.08042c1.50933 0.923162 2.51995 2.58119 2.51995 4.47995 0 2.90059-2.34935 5.25002-5.25002 5.25002s-5.25002-2.34944-5.25002-5.25002c0-1.89876 1.01062-3.55679 2.51995-4.47995l-1.26438-1.26438c-1.81562 1.26438-3.00564 3.36428-3.00564 5.74433 0 3.86748 3.13252 6.99991 7 6.99991s7-3.13243 7-6.99991c0-2.38005-1.19003-4.47995-3.00564-5.74433z"/>
    <path d="m12 3h-2v6h2z"/>
  </g>
  <g transform="matrix(1.2429357,0,0,1.2404909,-2.6723424,-2.3726656)" fill="#918273" stroke-width=".805337">
    <path d="m13.7302 7.08042c1.50933 0.923162 2.51995 2.58119 2.51995 4.47995 0 2.90059-2.34935 5.25002-5.25002 5.25002s-5.25002-2.34944-5.25002-5.25002c0-1.89876 1.01062-3.55679 2.51995-4.47995l-1.26438-1.26438c-1.81562 1.26438-3.00564 3.36428-3.00564 5.74433 0 3.86748 3.13252 6.99991 7 6.99991s7-3.13243 7-6.99991c0-2.38005-1.19003-4.47995-3.00564-5.74433z"/>
    <path d="m12 3h-2v6h2z"/>
  </g>
</svg>
