<?xml version="1.0" encoding="UTF-8" standalone="no"?>
<svg
   width="48"
   height="48"
   version="1.1"
   viewBox="0 0 24 24"
   id="svg3"
   sodipodi:docname="btn__pfl_fx.svg"
   inkscape:version="1.3.2 (1:1.3.2+202311252150+091e20ef0f)"
   xmlns:inkscape="http://www.inkscape.org/namespaces/inkscape"
   xmlns:sodipodi="http://sodipodi.sourceforge.net/DTD/sodipodi-0.dtd"
   xmlns="http://www.w3.org/2000/svg"
   xmlns:svg="http://www.w3.org/2000/svg">
  <defs
     id="defs3" />
  <sodipodi:namedview
     id="namedview3"
     pagecolor="#ffffff"
     bordercolor="#666666"
     borderopacity="1.0"
     inkscape:showpageshadow="2"
     inkscape:pageopacity="0.0"
     inkscape:pagecheckerboard="0"
     inkscape:deskcolor="#d1d1d1"
     inkscape:zoom="7.5208333"
     inkscape:cx="24"
     inkscape:cy="24"
     inkscape:window-width="1920"
     inkscape:window-height="1056"
     inkscape:window-x="0"
     inkscape:window-y="0"
     inkscape:window-maximized="1"
     inkscape:current-layer="svg3" />
  <g
     transform="matrix(1.1094661,0,0,1.1092154,-1.3135671,-1.3459957)"
     fill="#918273"
     stroke-width="0.79291"
     id="g6"
     style="fill:#000000;fill-opacity:1">
    <path
       d="m 4.876466,13.943484 2.5941394,-0.483697 c 0.4106097,-0.07653 0.8028092,0.192371 0.8793703,0.602971 l 0.8982555,4.8177 c 0.07656,0.410601 -0.1923702,0.802731 -0.6029799,0.879344 L 6.0511119,20.243411 C 5.6405022,20.319937 5.2483026,20.051041 5.1717416,19.64044 L 4.273486,14.822828 c -0.076559,-0.410601 0.1923703,-0.802819 0.60298,-0.879344 z"
       id="path4"
       style="fill:#000000;fill-opacity:1;stroke-width:0.79291" />
    <path
       d="m 11.99997,4.3935815 c -4.2131456,0 -7.6455512,1.673102 -7.6455512,5.8863355 0,0.481673 0.043953,2.704354 0.1295838,3.161047 0.364615,1.98545 0.7420547,3.96835 1.1309118,5.949139 L 6.145054,13.028691 C 6.221193,12.115061 6.050813,10.6227 6.050813,10.279917 c 0,-3.2962423 2.6529852,-4.1899238 5.949139,-4.1899238 3.296155,0 5.94914,0.8936815 5.94914,4.1899238 0,0.342783 -0.170379,1.835144 -0.09424,2.748774 0.530139,6.361412 0.530139,6.361412 0.530139,6.361412 0.388875,-1.980789 0.766306,-3.963689 1.130912,-5.949139 0.08563,-0.456693 0.129584,-2.679374 0.129584,-3.161047 0,-4.2132335 -3.432406,-5.8863355 -7.645551,-5.8863355 z"
       color="#000000"
       style="text-indent:0;text-transform:none;fill:#000000;fill-opacity:1;stroke-width:0.79291"
       id="path5" />
    <path
       d="m 19.123034,13.943484 -2.594139,-0.483697 c -0.41061,-0.07653 -0.80281,0.192371 -0.879371,0.602971 l -0.898255,4.8177 c -0.07656,0.410601 0.19237,0.802818 0.60298,0.879344 l 2.594139,0.483697 c 0.41061,0.07653 0.802809,-0.192371 0.879371,-0.603059 l 0.898255,-4.8177 c 0.07656,-0.410513 -0.19237,-0.802731 -0.60298,-0.879256 z"
       id="path6"
       style="fill:#000000;fill-opacity:1;stroke-width:0.79291" />
  </g>
</svg>
