<svg version="1.1" viewBox="0 0 116 26" xmlns="http://www.w3.org/2000/svg">
  <path d="m1.80078 1c-.434551-7e-8-.800781.36623-.800781.800781v22.3984c0 .434551.36623.800781.800781.800781l112.39852 1.9e-5c.43455 0 .80078-.36623.80078-.800781v-22.3984c0-.434551-.36623-.8007809-.80078-.800781zm1.19922 1 110.00012 1.9e-5c.56265 1e-7 1 .437351 1 1v20c0 .562649-.43735 1-1 1l-110.00012-1.9e-5c-.562649 0-1-.437351-1-1v-20c0-.562649.437351-1.0000001 1-1z" color="#000000" color-rendering="auto" dominant-baseline="auto" fill="#000001" image-rendering="auto" shape-rendering="auto" solid-color="#000000" style="font-feature-settings:normal;font-variant-alternates:normal;font-variant-caps:normal;font-variant-ligatures:normal;font-variant-numeric:normal;font-variant-position:normal;isolation:auto;mix-blend-mode:normal;paint-order:fill markers stroke;shape-padding:0;text-decoration-color:#000000;text-decoration-line:none;text-decoration-style:solid;text-indent:0;text-orientation:mixed;text-transform:none;white-space:normal"/>
  <path d="m3 2c-.562649-1e-7-1 .437352-1 1v.5h1.10742c.150078-.293496.446907-.5000001.800781-.5l108.183719 1.9e-5c.35387 1e-7.6507.206504.80078.5h1.10742v-.5c0-.562648-.43735-.9999999-1-1z" color="#000000" color-rendering="auto" dominant-baseline="auto" fill-opacity=".392157" image-rendering="auto" shape-rendering="auto" solid-color="#000000" style="font-feature-settings:normal;font-variant-alternates:normal;font-variant-caps:normal;font-variant-ligatures:normal;font-variant-numeric:normal;font-variant-position:normal;isolation:auto;mix-blend-mode:normal;paint-order:fill markers stroke;shape-padding:0;text-decoration-color:#000000;text-decoration-line:none;text-decoration-style:solid;text-indent:0;text-orientation:mixed;text-transform:none;white-space:normal"/>
  <path d="m3 24c-.562649 0-1-.437352-1-1v-19.5h1v18.5918c0 .503636.404567.908203.908203.908203l108.183717 1.9e-5c.50364 0 .9082-.404567.9082-.908203v-18.5918h1v19.5c0 .562648-.43735 1-1 1z" color="#000000" color-rendering="auto" dominant-baseline="auto" fill-opacity=".317647" image-rendering="auto" shape-rendering="auto" solid-color="#000000" style="font-feature-settings:normal;font-variant-alternates:normal;font-variant-caps:normal;font-variant-ligatures:normal;font-variant-numeric:normal;font-variant-position:normal;isolation:auto;mix-blend-mode:normal;paint-order:fill markers stroke;shape-padding:0;text-decoration-color:#000000;text-decoration-line:none;text-decoration-style:solid;text-indent:0;text-orientation:mixed;text-transform:none;white-space:normal"/>
</svg>
