<?xml version="1.0" encoding="UTF-8" standalone="no"?>
<svg
   width="44"
   height="44"
   version="1.1"
   viewBox="0 0 22 22"
   id="svg4"
   sodipodi:docname="btn__fx_toggle.svg"
   inkscape:version="1.3.2 (1:1.3.2+202311252150+091e20ef0f)"
   xmlns:inkscape="http://www.inkscape.org/namespaces/inkscape"
   xmlns:sodipodi="http://sodipodi.sourceforge.net/DTD/sodipodi-0.dtd"
   xmlns="http://www.w3.org/2000/svg"
   xmlns:svg="http://www.w3.org/2000/svg">
  <defs
     id="defs4" />
  <sodipodi:namedview
     id="namedview4"
     pagecolor="#ffffff"
     bordercolor="#666666"
     borderopacity="1.0"
     inkscape:showpageshadow="2"
     inkscape:pageopacity="0.0"
     inkscape:pagecheckerboard="0"
     inkscape:deskcolor="#d1d1d1"
     inkscape:zoom="10.295455"
     inkscape:cx="22"
     inkscape:cy="22"
     inkscape:window-width="1920"
     inkscape:window-height="1056"
     inkscape:window-x="0"
     inkscape:window-y="0"
     inkscape:window-maximized="1"
     inkscape:current-layer="svg4" />
  <g
     transform="matrix(1.2429357,0,0,1.2404909,-2.6723424,-2.3726656)"
     fill="none"
     stroke="#000001"
     stroke-linejoin="round"
     stroke-width="1.28855"
     id="g2">
    <path
       d="m 13.7302,7.08042 c 1.50933,0.923162 2.51995,2.58119 2.51995,4.47995 0,2.90059 -2.34935,5.25002 -5.25002,5.25002 -2.90067,0 -5.25002,-2.34944 -5.25002,-5.25002 0,-1.89876 1.01062,-3.55679 2.51995,-4.47995 L 7.00568,5.81604 c -1.81562,1.26438 -3.00564,3.36428 -3.00564,5.74433 0,3.86748 3.13252,6.99991 7,6.99991 3.86748,0 7,-3.13243 7,-6.99991 0,-2.38005 -1.19003,-4.47995 -3.00564,-5.74433 z"
       id="path1"
       style="stroke-width:1.28855" />
    <path
       d="m 12,3 h -2 v 6 h 2 z"
       id="path2"
       style="stroke-width:1.28855" />
  </g>
  <g
     transform="matrix(1.2429357,0,0,1.2404909,-2.6723424,-2.3726656)"
     fill="#918273"
     stroke-width="0.805337"
     id="g4">
    <path
       d="m 13.7302,7.08042 c 1.50933,0.923162 2.51995,2.58119 2.51995,4.47995 0,2.90059 -2.34935,5.25002 -5.25002,5.25002 -2.90067,0 -5.25002,-2.34944 -5.25002,-5.25002 0,-1.89876 1.01062,-3.55679 2.51995,-4.47995 L 7.00568,5.81604 c -1.81562,1.26438 -3.00564,3.36428 -3.00564,5.74433 0,3.86748 3.13252,6.99991 7,6.99991 3.86748,0 7,-3.13243 7,-6.99991 0,-2.38005 -1.19003,-4.47995 -3.00564,-5.74433 z"
       id="path3"
       style="stroke-width:0.805337" />
    <path
       d="m 12,3 h -2 v 6 h 2 z"
       id="path4"
       style="stroke-width:0.805337" />
  </g>
</svg>
